<?xml version="1.0" standalone="no"?><!DOCTYPE svg PUBLIC "-//W3C//DTD SVG 1.1//EN" "http://www.w3.org/Graphics/SVG/1.1/DTD/svg11.dtd"><svg t="1597303451168" class="icon" viewBox="0 0 1024 1024" version="1.1" xmlns="http://www.w3.org/2000/svg" p-id="39218" xmlns:xlink="http://www.w3.org/1999/xlink" width="200" height="200"><defs><style type="text/css"></style></defs><path d="M512 0c282.7648 0 512 229.2352 512 512s-229.2352 512-512 512S0 794.7648 0 512 229.2352 0 512 0z m-1.4848 450.978133L341.162667 281.6256a34.133333 34.133333 0 0 0-48.273067 0l-11.264 11.264a34.133333 34.133333 0 0 0 0 48.273067l169.352533 169.352533-169.352533 169.352533a34.133333 34.133333 0 0 0 0 48.273067l11.264 11.264a34.133333 34.133333 0 0 0 48.273067 0l169.352533-169.3568 169.352533 169.3568a34.133333 34.133333 0 0 0 48.273067 0l11.264-11.264a34.133333 34.133333 0 0 0 0-48.273067l-169.3568-169.352533 169.3568-169.352533a34.133333 34.133333 0 0 0 0-48.273067l-11.264-11.264a34.133333 34.133333 0 0 0-48.273067 0l-169.352533 169.352533z" p-id="39219" fill="#69c0ff"></path></svg>