<?xml version="1.0" standalone="no"?><!DOCTYPE svg PUBLIC "-//W3C//DTD SVG 1.1//EN" "http://www.w3.org/Graphics/SVG/1.1/DTD/svg11.dtd"><svg t="1597236424748" class="icon" viewBox="0 0 1024 1024" version="1.1" xmlns="http://www.w3.org/2000/svg" p-id="2913" xmlns:xlink="http://www.w3.org/1999/xlink" width="200" height="200"><defs><style type="text/css"></style></defs><path d="M413.416 284.528H456v34.832h-42.584zM299.744 284.528h63v34.832h-63zM186.992 319.36h62.088v-34.832h-70.168a25.168 25.168 0 0 0-25.168 25.176v46.328h33.248V319.36zM153.744 406.696h33.248v78.368h-33.248zM153.744 664.784h33.248v78.368h-33.248zM312.776 828.696h78.36v34.832h-78.36zM441.808 828.696h78.376v34.832h-78.376zM570.856 828.696h78.36v34.832h-78.36zM775 687.864h33.248v63h-33.248zM775 600.696h33.248v36.504h-33.248zM775 828.696h-75.112v34.832h83.184a25.144 25.144 0 0 0 25.168-25.168v-36.824h-33.248v27.16zM186.992 828.696v-34.872h-33.248v44.528a25.152 25.152 0 0 0 25.168 25.168h83.192v-34.832h-75.112zM153.744 535.744h33.248v78.368h-33.248zM376.08 515.528a44.24 44.24 0 1 0-0.008-88.48 44.24 44.24 0 0 0 0.008 88.48zM444.048 672.728L376.08 578.352 265.504 736.696h442.328l-72.536-136H495.128z" p-id="2914" fill="#69c0ff"></path><path d="M830.008 451.256c16.872-14.616 38.24-22.496 61.864-22.496a95.544 95.544 0 0 1 95.624 95.624c0 52.864-42.752 95.6-95.624 95.6a95.528 95.528 0 0 1-95.616-95.6c0-11.248 2.248-21.384 5.624-31.504l-75.376-66.376-172.12 127.12H520.64l175.496-154.12L520.64 245.392h33.752l172.12 127.12 75.376-66.368c-9.008-24.752-6.76-52.872 6.744-78.752 23.624-42.744 76.504-60.744 121.504-41.616 5.616 2.248 7.872 8.992 5.616 14.624-2.248 5.624-9 7.872-14.624 5.624-33.752-14.624-74.232-1.12-92.232 31.504-19.136 34.88-6.76 79.872 28.12 100.12 34.88 20.256 79.864 6.76 99-29.248 11.24-20.24 12.368-43.864 3.376-64.12-2.248-5.624 0-12.376 5.624-14.624s12.368 0 14.616 5.624c11.256 27 10.128 57.368-4.496 83.248-25.88 46.128-84.376 63-130.496 37.128-5.624-3.376-10.136-6.752-14.624-10.128l-68.632 50.624 68.624 55.104z m134.992 73.128a72.984 72.984 0 0 0-73.128-73.128c-40.504 0-73.128 32.624-73.128 73.128s32.624 73.12 73.128 73.12a72.984 72.984 0 0 0 73.128-73.12zM740.008 400.64c0-6.752-4.504-11.248-11.24-11.248-6.768 0-11.264 4.496-11.264 11.248s4.504 11.248 11.264 11.248c6.736 0 11.24-4.504 11.24-11.248z" p-id="2915" fill="#69c0ff"></path></svg>