<?xml version="1.0" standalone="no"?><!DOCTYPE svg PUBLIC "-//W3C//DTD SVG 1.1//EN" "http://www.w3.org/Graphics/SVG/1.1/DTD/svg11.dtd"><svg t="1597288610983" class="icon" viewBox="0 0 1024 1024" version="1.1" xmlns="http://www.w3.org/2000/svg" p-id="18673" xmlns:xlink="http://www.w3.org/1999/xlink" width="200" height="200"><defs><style type="text/css"></style></defs><path d="M919.027715 800.080138 727.697085 608.715739c34.514071-54.780651 54.745858-119.433136 54.745858-188.95042 0-196.318224-159.127184-355.461781-355.426989-355.461781-196.300828 0-355.496573 159.14458-355.496573 355.461781 0 196.318224 159.195745 355.462804 355.496573 355.462804 61.956074 0 120.202663-15.944134 170.957627-43.842531l194.899922 194.899922c37.033451 37.051871 89.74907 44.402279 117.682259 16.435321l24.921599-24.88783C963.48116 889.846604 956.130751 837.132008 919.027715 800.080138zM423.901011 691.86653c-149.360749 0-270.438339-121.077589-270.438339-270.438339 0-149.360749 121.077589-270.438339 270.438339-270.438339 149.359726 0 270.437316 121.077589 270.437316 270.438339C694.338327 570.787918 573.260737 691.86653 423.901011 691.86653z" p-id="18674" fill="#69c0ff"></path><path d="M341.537142 294.679439 506.263857 294.679439 423.901011 212.316593Z" p-id="18675" fill="#69c0ff"></path><path d="M423.901011 630.53979 506.263857 548.176944 341.537142 548.176944Z" p-id="18676" fill="#69c0ff"></path><path d="M550.64874 503.792061 633.012609 421.428192 550.64874 339.064322Z" p-id="18677" fill="#69c0ff"></path><path d="M297.152259 503.792061 297.152259 339.064322 214.788389 421.428192Z" p-id="18678" fill="#69c0ff"></path></svg>