<?xml version="1.0" standalone="no"?><!DOCTYPE svg PUBLIC "-//W3C//DTD SVG 1.1//EN" "http://www.w3.org/Graphics/SVG/1.1/DTD/svg11.dtd"><svg t="1597643904556" class="icon" viewBox="0 0 1024 1024" version="1.1" xmlns="http://www.w3.org/2000/svg" p-id="50223" id="mx_n_1597643904558" xmlns:xlink="http://www.w3.org/1999/xlink" width="200" height="200"><defs><style type="text/css"></style></defs><path d="M608.2 892.1H415.4a19.5 19.5 0 0 0-19.4 19.3 19.2 19.2 0 0 0 19.4 19.4h192.8a19.4 19.4 0 0 0 19.3-19.4 19.1 19.1 0 0 0-19.3-19.3zM579.3 949.7H444.2a19.5 19.5 0 0 0-19.4 19.4 19.2 19.2 0 0 0 19.4 19.4h135.1a19.4 19.4 0 1 0 0-38.8zM164.4 457.8h-77A19.5 19.5 0 0 0 68 477.1a19.2 19.2 0 0 0 19.4 19.4h77a19.5 19.5 0 0 0 19.4-19.4 19.1 19.1 0 0 0-19.4-19.3zM936.2 457.8h-77.1a19.5 19.5 0 0 0-19.4 19.3 19.2 19.2 0 0 0 19.4 19.4h77.1a19.4 19.4 0 0 0 0-38.7zM235.8 724.3L198 762.1a19.7 19.7 0 0 0 27.8 27.9l37.8-37.8a19.9 19.9 0 0 0 0-27.9c-6.6-8-18.9-8-27.8 0zM796.3 164.7l-37.8 37.9a19.7 19.7 0 0 0 27.8 27.8l37.8-37.8a19.7 19.7 0 1 0-27.8-27.9zM236.7 230.4a19.7 19.7 0 1 0 27.9-27.8l-37.8-37.9a19.7 19.7 0 0 0-27.9 27.9c0.5 0 37.8 37.8 37.8 37.8zM786.8 724.3a19.7 19.7 0 1 0-27.9 27.9l37.8 37.8a19.7 19.7 0 0 0 27.9-27.9zM511.8 159.1a19.4 19.4 0 0 0 19.3-19.4v-77a19.5 19.5 0 0 0-19.3-19.4 19.2 19.2 0 0 0-19.4 19.4v77a19.8 19.8 0 0 0 19.4 19.4zM511.8 197.4a289.2 289.2 0 0 0-154.1 534v102.1a38.9 38.9 0 0 0 38.7 38.7H628a38.9 38.9 0 0 0 38.8-38.7V731.9c80.8-51.1 135.1-141.8 135.1-244.8C801 326.8 672 197.4 511.8 197.4z" fill="#f4ea2a" p-id="50224" data-spm-anchor-id="a313x.7781069.0.i23" class=""></path><path d="M762.7 487.1c0-138-112.9-251-250.9-251s-251 113-251 251c0 86.9 43.5 165.8 116.7 212.2 11.4 7.5 18.5 19.3 18.5 32.6v102h96.4V667.1l-91.7-90.7c-6.6-7.6-6.6-19.4 0-26s19.4-6.6 26 0l85.1 84.1 85-84.1c6.6-6.6 19.4-6.6 26 0s6.6 19.4 0 26l-91.7 90.7v166.8h96.4v-102c0-13.7 6.7-26 18.5-32.6a250 250 0 0 0 116.7-212.2z" fill="#f4ea2a" p-id="50225"></path><path d="M430.9 335.8c-44.4 29.8-76.5 74.7-91.6 125.3a23.3 23.3 0 0 1-22.7 17 29.3 29.3 0 0 1-6.6-1 23.2 23.2 0 0 1-16.1-29.3 276.3 276.3 0 0 1 110.6-151.2c10.9-7.1 25.5-4.3 32.6 6.1s4.7 26-6.2 33.1z" fill="#f4ea2a" p-id="50226"></path></svg>