<?xml version="1.0" standalone="no"?><!DOCTYPE svg PUBLIC "-//W3C//DTD SVG 1.1//EN" "http://www.w3.org/Graphics/SVG/1.1/DTD/svg11.dtd"><svg t="1596967245819" class="icon" viewBox="0 0 1024 1024" version="1.1" xmlns="http://www.w3.org/2000/svg" p-id="19855" xmlns:xlink="http://www.w3.org/1999/xlink" width="200" height="200"><defs><style type="text/css"></style></defs><path d="M392.997283 316.444846l-78.14777 0 0 78.148793 78.14777 0L392.997283 316.444846zM392.997283 472.791551l-78.14777 0 0 78.156979 78.14777 0L392.997283 472.791551zM392.997283 160.15033c-42.993144 0-78.14777 35.14644-78.14777 78.148793l78.14777 0L392.997283 160.15033zM549.359337 629.145418l-78.14777 0 0 78.14777 78.14777 0L549.359337 629.145418zM783.844602 160.15033l0 78.148793 78.14777 0C861.992371 195.295746 826.79579 160.15033 783.844602 160.15033M549.359337 160.15033l-78.14777 0 0 78.148793 78.14777 0L549.359337 160.15033zM392.997283 707.293188l0-78.14777-78.14777 0C314.849513 672.081257 350.004139 707.293188 392.997283 707.293188M783.844602 550.94853l78.14777 0 0-78.156979-78.14777 0L783.844602 550.94853zM783.844602 394.642758l78.14777 0 0-78.14777-78.14777 0L783.844602 394.642758zM783.844602 707.293188c42.952211 0 78.14777-35.211931 78.14777-78.14777l-78.14777 0L783.844602 707.293188zM236.718116 316.444846l-78.206098 0 0 78.197912 0 390.797177c0 43.043286 35.14644 78.196888 78.206098 78.196888l468.977692 0 0-78.196888-468.977692 0L236.718116 316.444846zM627.49892 238.2981l78.14777 0 0-78.148793-78.14777 0L627.49892 238.2981zM627.49892 707.293188l78.14777 0 0-78.14777-78.14777 0L627.49892 707.293188z" p-id="19856" fill="#bfbfbf"></path></svg>