<?xml version="1.0" standalone="no"?><!DOCTYPE svg PUBLIC "-//W3C//DTD SVG 1.1//EN" "http://www.w3.org/Graphics/SVG/1.1/DTD/svg11.dtd"><svg t="1597149678029" class="icon" viewBox="0 0 1024 1024" version="1.1" xmlns="http://www.w3.org/2000/svg" p-id="1843" xmlns:xlink="http://www.w3.org/1999/xlink" width="200" height="200"><defs><style type="text/css"></style></defs><path d="M528.007408 96.405688V15.99612A15.984831 15.984831 0 0 0 503.544747 2.427075L247.550391 162.433425a15.99612 15.99612 0 0 0 0 27.138089l255.994356 159.995061a15.917098 15.917098 0 0 0 16.244471 0.428971c5.079925-2.822181 8.229479-8.184324 8.229479-13.998015v-79.596781c191.388998 8.387521 344.001235 166.136126 344.001235 359.59096 0 198.816977-161.169088 360.008643-359.997355 360.008643v31.992239c251.840106-0.011289 455.98536-204.17912 455.98536-455.98536-0.011289-246.489251-195.577114-447.14629-440.000529-455.601544z m376.004763 519.574733c0-210.771734-167.242421-383.139235-376.004763-391.583199a395.963223 395.963223 0 0 0-15.996119-0.406394h-15.99612V307.10969L286.214265 175.991181 496.015169 44.861382V127.991533h15.99612c5.362143 0 10.679131 0.214486 15.996119 0.406394 226.384037 8.466542 407.985713 195.182009 407.985713 423.598016a421.475736 421.475736 0 0 1-71.412457 235.256973 389.788292 389.788292 0 0 0 39.431507-171.272495z" p-id="1844" fill="#69c0ff"></path><path d="M482.762209 1007.044339a456.064381 456.064381 0 0 0 29.237791 0.925675v-31.992239c-9.09871 0-18.253864-0.293507-27.194532-0.857943l-2.043259 31.924507zM111.284224 690.91496l-30.231198 10.498512a458.344703 458.344703 0 0 0 21.414706 51.352397l28.729799-14.110903a427.09752 427.09752 0 0 1-19.913307-47.740006zM93.74155 620.653952a72.022048 72.022048 0 0 0-21.719502-140.668768 72.022048 72.022048 0 0 0-72.010759 72.010759c0 36.259376 26.844582 66.185779 61.715445 71.197972 2.449653 15.555859 5.531474 31.077852 9.572836 46.261184l30.91981-8.229479a421.374137 421.374137 0 0 1-8.47783-40.571668z m-61.738022-68.658009c0-22.058163 17.949068-40.007232 40.007232-40.007232s40.007232 17.949068 40.007231 40.007232-17.949068 40.007232-40.007231 40.007232-40.007232-17.93778-40.007232-40.007232zM145.918024 766.018829l-27.612214 16.176739a458.10764 458.10764 0 0 0 31.021409 46.227318l25.433491-19.427891a425.471944 425.471944 0 0 1-28.842686-42.976166zM394.890795 992.786683c17.870047 4.741263 36.236799 8.410098 54.60355 10.938772l4.346158-31.710021a422.356256 422.356256 0 0 1-50.754096-10.15985l-8.195612 30.931099zM311.467137 961.629809a453.705038 453.705038 0 0 0 51.431419 21.403418l10.475934-30.231199a425.471944 425.471944 0 0 1-47.819028-19.913306l-14.088325 28.741087zM194.504685 832.994819l-23.94338 21.234086a463.989064 463.989064 0 0 0 39.363775 39.341198l21.211509-23.965958a431.172748 431.172748 0 0 1-36.631904-36.609326zM235.742388 914.7929a457.814133 457.814133 0 0 0 46.261184 31.010121l16.16545-27.623504a424.70431 424.70431 0 0 1-43.021321-28.831397l-19.405313 25.44478z" p-id="1845" fill="#69c0ff"></path></svg>