<?xml version="1.0" standalone="no"?><!DOCTYPE svg PUBLIC "-//W3C//DTD SVG 1.1//EN" "http://www.w3.org/Graphics/SVG/1.1/DTD/svg11.dtd"><svg t="1597398183710" class="icon" viewBox="0 0 1024 1024" version="1.1" xmlns="http://www.w3.org/2000/svg" p-id="8410" xmlns:xlink="http://www.w3.org/1999/xlink" width="200" height="200"><defs><style type="text/css"></style></defs><path d="M718.77 960H305.23c-66.51 0-120.62-54.12-120.62-120.62V502.91c0-66.5 54.11-120.62 120.62-120.62h383.52V275.21c0-97.46-79.29-176.75-176.75-176.75s-176.75 79.29-176.75 176.75v38.89c0 9.52-7.72 17.23-17.23 17.23s-17.23-7.71-17.23-17.23v-38.89C300.79 158.75 395.54 64 512 64s211.21 94.75 211.21 211.21v107.17c64.46 2.34 116.17 55.51 116.17 120.53v336.47c0 66.5-54.1 120.62-120.61 120.62zM305.23 416.76c-47.5 0-86.15 38.65-86.15 86.15v336.47c0 47.5 38.65 86.15 86.15 86.15h413.54c47.5 0 86.15-38.65 86.15-86.15V502.91c0-47.5-38.65-86.15-86.15-86.15H305.23zM512 860.69c-104.51 0-189.54-85.03-189.54-189.52 0-104.53 85.03-189.56 189.54-189.56s189.54 85.03 189.54 189.56c0 104.49-85.03 189.52-189.54 189.52z m0-344.62c-85.51 0-155.08 69.58-155.08 155.09 0 85.5 69.57 155.06 155.08 155.06s155.08-69.56 155.08-155.06c0-85.51-69.57-155.09-155.08-155.09z m-25.11 227.94c-4.57 0-8.95-1.82-12.18-5.05l-61.05-61.06c-6.73-6.73-6.73-17.63 0-24.37s17.63-6.73 24.37 0l48.87 48.88 99.08-99.08c6.73-6.73 17.63-6.73 24.37 0s6.73 17.63 0 24.37L499.08 738.96a17.251 17.251 0 0 1-12.19 5.05z" p-id="8411" fill="#8c8c8c"></path></svg>