<?xml version="1.0" standalone="no"?><!DOCTYPE svg PUBLIC "-//W3C//DTD SVG 1.1//EN" "http://www.w3.org/Graphics/SVG/1.1/DTD/svg11.dtd"><svg t="1596967233121" class="icon" viewBox="0 0 1024 1024" version="1.1" xmlns="http://www.w3.org/2000/svg" p-id="3657" xmlns:xlink="http://www.w3.org/1999/xlink" width="200" height="200"><defs><style type="text/css"></style></defs><path d="M161.422298 550.654841l77.896037 0 0-77.896037-77.896037 0L161.422298 550.654841zM161.422298 706.47966l77.896037 0 0-77.886827-77.896037 0L161.422298 706.47966zM239.367453 862.304479l0-77.937992-77.946179 0C161.422298 827.26651 196.468454 862.304479 239.367453 862.304479M161.422298 394.870955l77.896037 0 0-77.886827-77.896037 0L161.422298 394.870955zM628.862986 862.304479l77.87864 0 0-77.88785-77.87864 0L628.862986 862.304479zM784.687805 161.158286l-389.545674 0c-42.849881 0-77.88785 35.028759-77.88785 77.88785l0 77.88785 0 77.936969 0 233.720856c0 42.791553 35.037969 77.886827 77.88785 77.886827l194.806606 0 155.7757 0 38.964391 0c42.792576 0 77.88785-35.095274 77.88785-77.886827l0-389.545674C862.575655 196.188068 827.480381 161.158286 784.687805 161.158286M784.687805 628.592833l-389.545674 0 0-389.545674 389.545674 0L784.687805 628.592833zM473.096495 862.304479l77.871477 0 0-77.88785-77.871477 0L473.096495 862.304479zM317.255304 862.304479l77.88785 0 0-77.88785-77.88785 0L317.255304 862.304479z" p-id="3658" fill="#bfbfbf"></path></svg>