<?xml version="1.0" standalone="no"?><!DOCTYPE svg PUBLIC "-//W3C//DTD SVG 1.1//EN" "http://www.w3.org/Graphics/SVG/1.1/DTD/svg11.dtd"><svg t="1597022902155" class="icon" viewBox="0 0 1024 1024" version="1.1" xmlns="http://www.w3.org/2000/svg" p-id="30737" xmlns:xlink="http://www.w3.org/1999/xlink" width="200" height="200"><defs><style type="text/css"></style></defs><path d="M102.5 633.4h61.7c21.3 0 38.5-17.2 38.5-38.5s-17.2-38.5-38.5-38.5h-61.7c-21.3 0-38.5 17.2-38.5 38.5-0.1 21.3 17.2 38.5 38.5 38.5zM102.5 302h61.7c21.3 0 38.5-17.2 38.5-38.5S185.5 225 164.2 225h-61.7C81.2 225 64 242.2 64 263.5c-0.1 21.2 17.2 38.5 38.5 38.5zM202.7 760.7c0-21.3-17.2-38.5-38.5-38.5h-61.7c-21.3 0-38.5 17.2-38.5 38.5s17.2 38.5 38.5 38.5h61.7c21.2 0 38.5-17.3 38.5-38.5zM102.5 467.7h61.7c21.3 0 38.5-17.2 38.5-38.5s-17.2-38.5-38.5-38.5h-61.7C81.2 390.7 64 408 64 429.2c-0.1 21.3 17.2 38.5 38.5 38.5z" p-id="30738" fill="#69c0ff"></path><path d="M806.5 76.5l-606.4-0.2c-43.5 0-79.1 35.6-79.1 79.1v45.9h43.3c34.1 0 61.7 27.6 61.7 61.7s-27.6 61.7-61.7 61.7H121v42.4h43.3c34.1 0 61.7 27.6 61.7 61.7s-27.6 61.7-61.7 61.7H121v42.4h43.3c34.1 0 61.7 27.6 61.7 61.7s-27.6 61.7-61.7 61.7H121v42.4h43.3c34.1 0 61.7 27.6 61.7 61.7s-27.6 61.7-61.7 61.7H121v46.1c0 43.5 35.5 79.1 79.1 79.1h606.4c43.5 0 79.1-35.5 79.1-79.1V155.6c0-43.5-35.6-79.1-79.1-79.1zM515.6 237.1c60.7 0 110 49.3 110.2 110.2 0 60.9-49.3 110.2-110.2 110.2s-110.2-49.3-110.2-110.2c0-60.9 49.4-110.2 110.2-110.2z m176.7 514.1h-0.3c-3.4 20-80.9 36-176.5 36s-173.2-16-176.5-36h-0.4V644.1c0-78.1 49.3-144.4 117.9-169.1l59 78.5 58.9-78.5c68.7 24.6 117.9 90.9 117.9 169.1v107.1zM943.7 158.5h-27.1c-8.9 0-16.3 7.4-16.3 16.3v95.1c0-8.9 7.4-16.3 16.3-16.3h27.1c8.9 0 16.3 7.4 16.3 16.3v-95.1c0-8.9-7.4-16.3-16.3-16.3zM943.7 278h-27.1c-8.9 0-16.3 7.4-16.3 16.3v95.1c0-8.9 7.4-16.3 16.3-16.3h27.1c8.9 0 16.3 7.4 16.3 16.3v-95.1c0-9-7.4-16.3-16.3-16.3zM943.7 393.3h-27.1c-8.9 0-16.3 7.4-16.3 16.3v103.2c0 8.9 7.4 16.3 16.3 16.3h27.1c8.9 0 16.3-7.4 16.3-16.3V409.6c0-8.9-7.4-16.3-16.3-16.3z" p-id="30739" fill="#69c0ff"></path></svg>