<?xml version="1.0" standalone="no"?><!DOCTYPE svg PUBLIC "-//W3C//DTD SVG 1.1//EN" "http://www.w3.org/Graphics/SVG/1.1/DTD/svg11.dtd"><svg t="1597449244981" class="icon" viewBox="0 0 1024 1024" version="1.1" xmlns="http://www.w3.org/2000/svg" p-id="21669" xmlns:xlink="http://www.w3.org/1999/xlink" width="200" height="200"><defs><style type="text/css"></style></defs><path d="M711.16 483.49v-99.54c0-23.56-19.1-42.66-42.66-42.66-3.73 0-7.28 0.63-10.72 1.53-39.12-44.42-96.22-72.63-159.92-72.63-117.61 0-213.3 95.69-213.3 213.3v56.88c0 117.62 95.69 213.3 213.3 213.3 64.75 0 122.74-29.1 161.89-74.79 26.85 30.34 66.22 45.92 105.33 45.92 86.27 0 173.6-73.13 173.6-212.87 0-235.23-191.38-426.6-426.6-426.6S85.47 276.7 85.47 511.93s191.38 426.6 426.6 426.6c95.1 0 185.11-30.62 260.27-88.57 18.66-14.39 22.13-41.17 7.74-59.84-14.38-18.65-41.17-22.12-59.83-7.74-60.11 46.33-132.09 70.82-208.19 70.82-188.19 0-341.28-153.1-341.28-341.28 0-188.19 153.1-341.28 341.28-341.28s341.28 153.1 341.28 341.28c0 87.63-45.76 127.55-88.28 127.55-26.07 0-53.92-14.83-53.92-56.45v-99.53zM497.85 668.35c-70.57 0-127.98-57.41-127.98-127.98v-56.88c0-70.57 57.42-127.98 127.98-127.98s127.98 57.42 127.98 127.98v56.88c0.01 70.57-57.41 127.98-127.98 127.98z" fill="#8c8c8c" p-id="21670"></path></svg>