<?xml version="1.0" standalone="no"?><!DOCTYPE svg PUBLIC "-//W3C//DTD SVG 1.1//EN" "http://www.w3.org/Graphics/SVG/1.1/DTD/svg11.dtd"><svg t="1597450370392" class="icon" viewBox="0 0 1024 1024" version="1.1" xmlns="http://www.w3.org/2000/svg" p-id="32958" xmlns:xlink="http://www.w3.org/1999/xlink" width="200" height="200"><defs><style type="text/css"></style></defs><path d="M865.055 173.88L539.353 68.525c-17.763-5.657-37.032-5.657-54.799 0l-325.7 105.355c-27.664 8.928-46.225 34.47-46.225 63.55v231.306c0 133.635 64.255 260.646 171.998 339.93l187.73 138.059c11.578 8.573 25.28 12.992 39.597 12.992 14.32 0 28.02-4.508 39.595-12.992l187.82-138.06c107.744-79.197 172-206.295 172-339.93V237.43c-0.09-29.08-18.648-54.622-46.314-63.55zM854.36 470.238c0 115.343-55.506 225.031-148.4 293.349L524.771 896.786c-7.515 5.478-18.12 5.57-25.72 0L317.949 763.587c-92.983-68.318-148.4-178.006-148.4-293.35V247.152c0-9.368 6.01-17.677 14.937-20.504l314.21-101.645a42.463 42.463 0 0 1 13.258-2.12c4.513 0 8.929 0.706 13.264 2.12L839.34 226.647c8.926 2.827 14.938 11.136 14.938 20.504l0.088 223.087h-0.007z m-142.741-154.41H312.292a22.14 22.14 0 0 0-22.184 22.182c0 12.288 9.898 32.791 22.184 32.791h172.175v320.397c0 12.29 15.202 22.189 27.487 22.189s28.374-9.899 28.374-22.189V370.801H711.62c12.284 0 22.183-20.503 22.183-32.79a22.143 22.143 0 0 0-22.184-22.183z m0 0" p-id="32959" fill="#8c8c8c"></path></svg>